<?xml version="1.0" encoding="utf-8"?>
<!-- Generator: Adobe Illustrator 19.0.0, SVG Export Plug-In . SVG Version: 6.00 Build 0)  -->
<svg version="1.1" id="Layer_1" xmlns="http://www.w3.org/2000/svg" xmlns:xlink="http://www.w3.org/1999/xlink" x="0px" y="0px"
	 viewBox="0 0 500 500" style="enable-background:new 0 0 500 500;" xml:space="preserve">
<g id="XMLID_1_">
	<path id="XMLID_2_" d="M173.6,318.7c-8.1-0.9-15.8-4-22.2-8.9c-1.1-0.8-1.7-1.1-1.7-1.4c0.1-0.5,8.6-12,8.9-12.1
		c0.2-0.1,0.6,0.2,1.3,0.6c3.1,2,7.8,4.1,11.3,5c3.4,0.8,8.1,0.7,11.6-0.2c4.9-1.4,9.3-5.2,11.5-10.1c1.4-3.1,2.5-7.6,2.8-11.6
		c0.1-1.7,0.1-2-0.2-2c-0.2,0-0.4,0.2-0.6,0.3c-1.1,1.3-4.6,3.3-7.8,4.3c-3.4,1.1-5.9,1.5-9,1.3c-5.8-0.3-9.9-1.4-14.8-3.9
		c-9.9-5.1-16.4-14.1-18.1-25.2c-0.2-1.3-0.3-5.9-0.3-20.2v-18.5l9-0.1l9-0.1c0,0,0.3,8.8,0.4,18.5c0.2,16.2,0.2,17.7,0.6,19.2
		c1.5,6.2,6.4,10.9,12.7,12.2c2.2,0.4,5.6,0.3,7.6-0.3c5.2-1.6,9.2-5.5,10.9-10.7l0.7-1.9l0.1-18.4l0.1-18.4l9.1-0.1
		c7.1,0,9.1-0.1,9.2,0.1c0.2,0.4,0.3,43.1,0,51.1c-0.2,7.1-0.6,12.2-1.2,16.5c-1.8,12.2-5.3,20.1-11.5,26.1
		c-4.5,4.3-10.3,7-18.1,8.4C182.9,318.6,175.5,318.9,173.6,318.7z M248.9,284.2c-0.2-0.1-1.5-0.3-2.7-0.6
		c-5.9-1.3-11.5-3.3-16.3-5.7c-2.6-1.3-6.5-3.8-6.6-4.2c-0.1-0.2,8.1-11,8.8-11.8c0.3-0.3,0.1,0,1.9,1c3.4,2,8.6,3.9,12.9,4.8
		c3,0.6,9.3,0.7,11.6,0.1c3.2-0.9,5-2.4,5-4.3c0-2.3-1.9-3.3-12.3-6.3c-4.1-1.2-8.7-2.6-10.2-3.2c-9.2-3.4-14-7.7-15.7-13.7
		c-0.4-1.3-0.4-2.1-0.4-4.3c0-5.4,1.6-9.2,5.5-13.2c4.1-4.2,9.4-6.7,16.5-7.6c7.5-1,18,0.7,25.4,4.2c1.8,0.8,4.7,2.5,5.6,3.3
		l0.6,0.5l-4.4,5.7c-2.4,3.1-4.5,5.7-4.6,5.7c-0.1,0-1.4-0.4-2.7-0.9c-5.1-1.8-9.2-2.7-13.7-2.9c-5.7-0.2-9.1,0.8-10.2,3.1
		c-0.9,1.9,0,3.3,3.2,4.7c1,0.4,5.1,1.7,9.1,2.9c10.8,3.1,14.6,4.6,18.5,7.2c7.5,5,9.7,12.7,6.3,21.5c-1.1,2.9-2.1,4.4-4.1,6.3
		c-3.9,3.7-8.2,5.9-14.1,7.2c-2.1,0.5-2.9,0.6-7.3,0.8C251.7,284.5,250.9,284.6,248.9,284.2z M98.4,283.9c-10.1-1-19.2-6.5-25-15
		c-4.3-6.4-6.3-13.9-5.8-21.9c0.9-14.6,11.5-27.3,25.7-30.9c4-1,5-1.1,15.3-1.2l9.8-0.1l0.1-16.8l0.1-16.8l9-0.1
		c7.1,0,9.1-0.2,9.2,0.1c0,0.1,0.1,8.1,0.2,17.5c0.2,20.5-0.1,53.3-0.7,56.2c-0.9,4.8-2.4,8.8-4.8,12.8c-2.6,4.2-6.8,8.4-11.3,11.2
		c-2.6,1.6-6.5,3.2-9.8,4.1C107.3,283.9,101.7,284.2,98.4,283.9z M105.3,265.5c5.5-1.1,10.3-5.4,12.1-10.6c0.9-2.6,1-3.8,0.9-13
		l-0.1-8.6l-9.3,0c-10.4,0-10.7,0-13.6,1.4c-4.5,2.1-7.7,5.8-9.1,10.6c-0.4,1.3-0.5,2.1-0.5,4.2c0,3.1,0.3,4.6,1.8,7.5
		c0.9,1.9,1.3,2.3,3.1,4.2c2.1,2.1,3.9,3.2,6.3,4C99.4,265.9,102.7,266.1,105.3,265.5z M317.7,283.9c-4.2-0.4-8.3-1.6-12.5-3.7
		c-6.5-3.3-11.7-8.4-14.9-14.8c-1.9-3.6-3-7-3.6-11c-0.4-2.2-0.4-8.2,0-10.1c1.4-8,4.7-14.3,10.1-19.5c5.5-5.3,11.7-8.3,19.3-9.4
		c10.7-1.6,21.6,2,29.3,9.7c4.9,4.9,7.9,10.5,9.5,17.5c0.6,2.8,0.8,8.6,0.3,11.7c-1.5,10.3-7.1,18.9-16,24.6
		c-3.5,2.2-8.4,4-12.8,4.7C324.5,284,319.9,284.1,317.7,283.9z M325.5,265.3c3.1-1,5.3-2.4,7.4-4.6c6.4-6.8,5.7-17.8-1.5-23.6
		c-1.6-1.3-4.8-2.9-6.8-3.3c-2.1-0.5-5.7-0.5-7.8,0.1c-4.4,1.1-8.2,4.2-10.3,8.2c-1.4,2.6-1.8,4.1-1.8,7.5c0,2.4,0.1,3.2,0.5,4.5
		c1.1,3.9,3.5,7.1,6.8,9.3c1.7,1.1,3.4,1.8,6.2,2.5c0.2,0.1,1.6,0.1,3.1,0C323.5,265.7,324.4,265.6,325.5,265.3z M363,282.8
		c0-0.7-0.2-33.5,0-36c1.1-12.2,7.9-22.4,18.9-28c9.6-4.9,21.4-5,30.9-0.2c9.3,4.6,15.8,12.5,18.5,22.1c1.1,4,1.1,3.9,1.2,23.3
		c0,10.6,0.2,18.3,0,18.3c-12.8,0-13,0-18.6,0c-0.1,0-0.1-6.7-0.1-17.3c0-18.7,0-18.5-1.1-21.5c-1.7-4.5-6.2-8.5-11-9.7
		c-2.3-0.6-5.8-0.6-8.2,0c-5.9,1.5-10.1,5.7-11.9,11.8c-0.3,1-0.3,3.1-0.4,19l-0.1,18.2c0,0-4.9,0.1-9.5,0.1
		C363.7,282.8,367.7,282.8,363,282.8z"/>
</g>
</svg>
