<svg height="496pt" viewBox="0 -28 496.00309 496" width="496pt" xmlns="http://www.w3.org/2000/svg"><path d="m488.242188 290.46875v71.027344c0 8.652344-7.011719 15.664062-15.660157 15.660156h-23.980469l-.597656.171875c-5.25-17.863281-21.675781-30.105469-40.296875-30.03125-18.617187.078125-34.941406 12.453125-40.042969 30.359375l-1.589843-.5h-30.953125v-115.648438h109.679687l33.953125 14.558594c5.757813 2.46875 9.492188 8.132813 9.488282 14.402344zm0 0" fill="#00acea"/><path d="m448.003906 377.328125c5.074219 17.277344-1.480468 35.863281-16.269531 46.136719-14.789063 10.269531-34.496094 9.917968-48.914063-.871094-14.414062-10.789062-20.304687-29.597656-14.617187-46.683594 5.6875-17.085937 21.671875-28.613281 39.679687-28.613281 18.570313-.046875 34.933594 12.199219 40.121094 30.03125zm0 0" fill="#00efd1"/><path d="m417.171875 207.886719 27.628906 53.621093h-109.679687v-70.589843h54.210937c11.726563 0 22.46875 6.546875 27.839844 16.96875zm0 0" fill="#f4b844"/><path d="m103.351562 196.835938c15.78125 18.085937 38.425782 28.71875 62.421876 29.3125h.007812c.742188.019531 1.480469.027343 2.222656.027343.738282 0 1.480469-.007812 2.21875-.027343h.011719c46.5625-1.21875 83.679687-39.3125 83.6875-85.890626 0-1.941406-.058594-3.871093-.199219-5.78125h81.398438v242.679688h-213.648438l-.808594.242188c-5.195312-17.800782-21.492187-30.050782-40.03125-30.101563-18.542968-.046875-34.902343 12.121094-40.191406 29.890625l-.097656-.03125h-16.921875c-8.648437.003906-15.660156-7.007812-15.660156-15.660156v-227.019532h74.519531c-.136719 1.910157-.199219 3.839844-.199219 5.78125-.027343 20.820313 7.535157 40.933594 21.269531 56.578126zm0 0" fill="#fedb41"/><path d="m253.722656 134.476562c.140625 1.910157.199219 3.839844.199219 5.78125h-36.890625c.09375-13.121093-2.023438-26.164062-6.257812-38.582031 8.25-4.726562 15.640624-10.8125 21.871093-18 12.429688 14.148438 19.839844 32.007813 21.078125 50.800781zm0 0" fill="#00efd1"/><path d="m217.03125 140.257812h36.890625c.03125 20.820313-7.53125 40.933594-21.269531 56.578126-6.226563-7.191407-13.625-13.277344-21.878906-18.007813 4.242187-12.414063 6.359374-25.453125 6.257812-38.570313zm0 0" fill="#00acea"/><path d="m170.234375 54.367188c23.992187.589843 46.632813 11.222656 62.410156 29.308593-6.230469 7.1875-13.621093 13.273438-21.871093 18-7.359376-21.019531-21.101563-37.988281-40.539063-47.308593zm0 0" fill="#00acea"/><path d="m232.652344 196.835938c-15.78125 18.085937-38.425782 28.71875-62.417969 29.3125 19.4375-9.320313 33.179687-26.292969 40.539063-47.320313 8.253906 4.730469 15.652343 10.816406 21.878906 18.007813zm0 0" fill="#00efd1"/><path d="m217.03125 140.257812h-49.027344v-27.300781h.21875c14.929688.050781 29.605469-3.839843 42.550782-11.28125 4.234374 12.417969 6.351562 25.460938 6.257812 38.582031zm0 0" fill="#00acea"/><path d="m168.003906 140.257812h49.027344c.101562 13.117188-2.015625 26.15625-6.257812 38.570313-12.945313-7.4375-27.621094-11.324219-42.550782-11.269531h-.21875zm0 0" fill="#00efd1"/><path d="m170.234375 54.367188c19.4375 9.320312 33.179687 26.289062 40.539063 47.308593-12.945313 7.441407-27.621094 11.332031-42.550782 11.28125h-.21875v-58.621093c.738282 0 1.480469.011718 2.21875.03125zm0 0" fill="#00efd1"/><path d="m210.773438 178.828125c-7.359376 21.027344-21.101563 38-40.539063 47.320313h-.011719c-.738281.019531-1.480468.027343-2.21875.027343v-58.617187h.21875c14.929688-.054688 29.605469 3.832031 42.550782 11.269531zm0 0" fill="#00acea"/><path d="m168.003906 218.367188v7.808593c-.742187 0-1.480468-.007812-2.222656-.027343h-.007812c-19.410157-9.3125-33.140626-26.242188-40.511719-47.230469 13.007812-7.464844 27.746093-11.382813 42.742187-11.359375zm0 0" fill="#00efd1"/><path d="m168.003906 140.257812v27.300782c-14.996094-.023438-29.734375 3.894531-42.742187 11.359375-4.257813-12.441407-6.382813-25.511719-6.289063-38.660157zm0 0" fill="#00acea"/><path d="m168.003906 112.957031v27.300781h-49.03125c-.09375-13.148437 2.03125-26.21875 6.289063-38.660156 13.007812 7.460938 27.746093 11.378906 42.742187 11.359375zm0 0" fill="#00efd1"/><path d="m168.003906 62.148438v50.808593c-14.996094.019531-29.734375-3.898437-42.742187-11.359375 7.371093-20.980468 21.101562-37.921875 40.511719-47.230468h.007812c.742188-.019532 1.480469-.03125 2.222656-.03125zm0 0" fill="#00acea"/><path d="m165.773438 54.367188c-19.410157 9.308593-33.140626 26.25-40.511719 47.230468-8.242188-4.71875-15.640625-10.777344-21.898438-17.921875 15.773438-18.085937 38.417969-28.71875 62.410157-29.308593zm0 0" fill="#00efd1"/><path d="m125.261719 178.917969c7.371093 20.988281 21.101562 37.917969 40.511719 47.230469-23.996094-.59375-46.640626-11.226563-62.421876-29.3125 6.257813-7.148438 13.660157-13.207032 21.910157-17.917969zm0 0" fill="#00acea"/><path d="m120.664062 377.398438c5.042969 17.277343-1.539062 35.84375-16.335937 46.09375-14.796875 10.246093-34.492187 9.875-48.894531-.925782-14.398438-10.796875-20.273438-29.597656-14.582032-46.675781 5.691407-17.074219 21.671876-28.59375 39.671876-28.59375 18.613281-.09375 35.015624 12.207031 40.140624 30.101563zm0 0" fill="#00efd1"/><path d="m125.261719 101.597656c-4.257813 12.441406-6.382813 25.511719-6.289063 38.660156h-36.890625c0-1.941406.0625-3.871093.199219-5.78125 1.238281-18.792968 8.648438-36.652343 21.082031-50.800781 6.257813 7.144531 13.65625 13.203125 21.898438 17.921875zm0 0" fill="#00acea"/><path d="m118.972656 140.257812c-.09375 13.148438 2.03125 26.21875 6.289063 38.660157-8.25 4.710937-15.652344 10.769531-21.910157 17.917969-13.734374-15.644532-21.296874-35.757813-21.269531-56.578126zm0 0" fill="#00efd1"/><path d="m481.785156 268.714844-31.246094-13.425782-26.285156-51.296874c-6.679687-13.160157-20.164062-21.476563-34.921875-21.535157h-46.328125v-47.980469c.027344-2.109374-.789062-4.144531-2.269531-5.652343-1.480469-1.503907-3.5-2.355469-5.613281-2.367188h-29.542969c-2.871094-30-16.46875-59.742187-38.011719-82.933593-25.59375-27.859376-61.734375-43.65625-99.5625-43.51953175-43.730468 0-79.246094 21.47265575-102.269531 45.95312475l.742187-17.800781c.132813-2.863281-1.277343-5.582031-3.695312-7.121094-2.421875-1.539062-5.480469-1.667968-8.019531-.332031-2.539063 1.332031-4.167969 3.925781-4.273438 6.789063l-1.679687 40.410156c-.089844 2.179687.710937 4.300781 2.21875 5.871094 1.511718 1.574218 3.59375 2.464843 5.773437 2.464843.125 0 .246094-.003906.367188-.011719l.34375-.011718c.601562.039062 1.203125.015625 1.800781-.082032l35.730469-1.582031c4.390625-.222656 7.78125-3.949219 7.585937-8.34375-.195312-4.394531-3.898437-7.808593-8.296875-7.640625l-19.144531.847656c20.058594-22.199218 52.863281-43.40625 92.816406-43.40625 33.375-.117187 65.261719 13.824219 87.839844 38.40625 18.804688 20.242188 30.804688 46.042969 33.660156 72.042969h-28.589844c-2.558593-17.835937-10.292968-34.53125-22.25-48.011719-17.230468-19.703124-42.097656-30.988281-68.230468-31.988281h-4.863282c-26.128906 1-51 12.285157-68.222656 31.980469-11.964844 13.480469-19.703125 30.179688-22.257812 48.019531h-67.328125c-2.097657.015625-4.101563.871094-5.5625 2.382813-1.460938 1.507812-2.2500002 3.539062-2.19531275 5.636718v227.019532c0 13.046875 10.37109375 23.960937 23.41796875 23.960937h7.449219c-.097656 1-.160156 2.476563-.160156 3.800781-.007813 27.507813 22.285156 49.816407 49.792968 49.828126 27.507813.011718 49.820313-22.28125 49.828125-49.792969 0-1.320313-.054687-2.835938-.160156-3.835938h228.0625c-.101563 1-.160156 2.476563-.160156 3.800781-.011719 27.507813 22.28125 49.816407 49.789062 49.828126 27.511719.011718 49.820313-22.28125 49.828125-49.792969 0-1.320313-.054687-2.835938-.160156-3.835938h15.050781c13.046875 0 23.421875-10.914062 23.421875-23.960937v-71.027344c.054688-9.449219-5.542968-18.015625-14.21875-21.753906zm-92.453125-70.257813c8.769531.0625 16.769531 5.015625 20.730469 12.839844l21.617188 42.160156h-88.675782v-55zm-278.097656-50c.535156 9.152344 2.058594 18.222657 4.539063 27.050781-4.15625 2.792969-8.085938 5.917969-11.746094 9.339844-7.5-10.796875-12.148438-23.316406-13.519532-36.390625zm134.269531-16h-20.726562c-.453125-9.203125-1.96875-18.324219-4.523438-27.175781 4.164063-2.777344 8.097656-5.886719 11.753906-9.300781 7.511719 10.820312 12.152344 23.371093 13.496094 36.476562zm-69.5 81.089844v-37.621094c8.539063.839844 16.882813 3.105469 24.675782 6.699219-5.710938 13.039062-14.085938 23.53125-24.675782 30.921875zm0-146.578125c10.589844 7.386719 18.960938 17.875 24.675782 30.917969-7.796876 3.585937-16.136719 5.847656-24.675782 6.691406zm-16 37.589844c-8.53125-.875-16.855468-3.15625-24.640625-6.75 5.714844-13 14.074219-23.460938 24.640625-30.832032zm16 16.085937c10.285156-.800781 20.367188-3.3125 29.828125-7.429687 1.566407 6.308594 2.546875 12.75 2.921875 19.242187h-32.75zm32.75 27.8125c-.449218 6.417969-1.425781 12.785157-2.917968 19.042969-9.453126-4.175781-19.535157-6.75-29.832032-7.621094v-11.421875zm-48.75 65.085938c-10.566406-7.375-18.929687-17.835938-24.640625-30.835938 7.785157-3.589843 16.109375-5.867187 24.640625-6.742187zm-38.496094-22.625c3.082032 6.738281 6.949219 13.089843 11.527344 18.921875-6.792968-3.410156-13.046875-7.789063-18.574218-13.007813 2.230468-2.109375 4.582031-4.085937 7.046874-5.914062zm93.019532-.070313c2.464844 1.84375 4.816406 3.835938 7.042968 5.960938-5.53125 5.226562-11.796874 9.617187-18.597656 13.03125 4.589844-5.851563 8.46875-12.226563 11.554688-18.992188zm17.476562-6.085937c-3.65625-3.410157-7.585937-6.515625-11.746094-9.289063 2.472657-8.816406 3.988282-17.875 4.519532-27.015625h20.71875c-1.363282 13.046875-6.007813 25.535157-13.492188 36.304688zm-17.480468-95.105469c-3.082032-6.757812-6.960938-13.128906-11.546876-18.976562 6.796876 3.414062 13.058594 7.800781 18.582032 13.027343-2.222656 2.125-4.570313 4.109375-7.035156 5.949219zm-93.011719-.0625c-2.460938-1.828125-4.8125-3.804688-7.039063-5.914062 5.523438-5.214844 11.777344-9.59375 18.566406-13-4.574218 5.828124-8.445312 12.175781-11.527343 18.914062zm8.683593 23.53125c9.453126 4.121094 19.527344 6.648438 29.808594 7.488281v11.84375h-32.75c.378906-6.523437 1.363282-12.996093 2.941406-19.335937zm29.808594 35.332031v11.445313c-10.292968.90625-20.363281 3.503906-29.8125 7.6875-1.5-6.289063-2.484375-12.6875-2.9375-19.132813zm-62.671875 53.800781c17.367188 19.640626 42.039063 31.28125 68.238281 32.199219h.050782c.796875 0 1.589844.03125 2.382812.03125.792969 0 1.582032-.03125 2.375-.03125h.054688c26.199218-.917969 50.871094-12.5625 68.234375-32.199219 14.492187-16.605468 22.703125-37.765624 23.203125-59.800781h28.1875c-1.164063 27-13.273438 56.21875-32.910156 78.011719-22.621094 25.460938-55.089844 39.976562-89.144532 39.855469-34.292968 0-65.949218-14.214844-89.144531-40.007813-19.632813-21.839844-31.746094-50.859375-32.914063-77.859375h28.1875c.5 22.035157 8.707032 43.195313 23.199219 59.800781zm6.691407-106.351562c3.660156 3.425781 7.589843 6.554688 11.75 9.351562-2.566407 8.859376-4.089844 17.988282-4.542969 27.199219h-20.726563c1.335938-13.132812 5.988282-25.710937 13.519532-36.554687zm-23.5 327c-10.671876 0-20.710938-5.039062-27.09375-13.589844-6.382813-8.546875-8.355469-19.609375-5.320313-29.839844l.003906-.019531c4.28125-14.367187 17.511719-24.203125 32.507813-24.160156 14.992187.042969 28.167968 9.957031 32.363281 24.347656 2.972656 10.21875.964844 21.234375-5.417969 29.746094-6.386718 8.507813-16.40625 13.515625-27.042968 13.515625zm0-83.308594c-19.792969.019532-37.699219 11.734375-45.644532 29.859375h-11.457031c-4.21875 0-7.417969-3.734375-7.417969-7.960937v-219.039063h13.929688c1.167968 31 14.816406 63.855469 37.027344 88.558594 26.269531 29.210937 62.152343 45.300781 101.042968 45.300781 80.867188-.003906 135.75-68.859375 138.074219-133.859375h20.925781v227h-200.839844c-7.9375-18.132812-25.847656-29.851562-45.640624-29.859375zm327.359374 83.308594c-10.597656-.003906-20.582031-4.976562-26.972656-13.433594-6.386718-8.457031-8.445312-19.417968-5.554687-29.617187l.003906-.015625c4.78125-16.796875 21.566406-27.191406 38.734375-23.980469 17.167969 3.207031 29.066406 18.964844 27.453125 36.355469-1.609375 17.390625-16.199219 30.691406-33.664063 30.691406zm72.121094-61.410156c0 4.226562-3.203125 7.960937-7.421875 7.960937h-19.058593c-7.929688-18.136719-25.847657-29.859375-45.640626-29.859375-19.796874 0-37.710937 11.722656-45.640624 29.859375h-19.238282v-100h100.15625l32.320313 13.9375c2.792969 1.234375 4.574219 4.019531 4.523437 7.074219zm0 0" fill="#083863"/></svg>