<svg height="496pt" viewBox="-82 0 496 496.93333" width="496pt" xmlns="http://www.w3.org/2000/svg"><path d="m190.472656 50.644531h87.101563l47.898437 60.398438v291.890625h-236.738281v-291.890625l29.917969-37.707031 17.992187-22.691407zm18.242188 51.859375c-.53125-.03125-1.070313-.050781-1.613282-.050781-13.910156 0-25.453124 10.753906-26.429687 24.632813-.046875.609374-.070313 1.238281-.070313 1.867187 0 14.429687 11.539063 26.214844 25.96875 26.507813 14.425782.292968 26.4375-11.007813 27.023438-25.429688.582031-14.417969-10.476562-26.652344-24.878906-27.527344zm0 0" fill="#00acea"/><path d="m262.011719 402.933594-30.488281 86-223.128907-79.109375 80.207031-226.230469h.132813v219.339844zm0 0" fill="#00efd1"/><g fill="#083863"><path d="m283.839844 45.59375c-1.507813-1.929688-3.816406-3.070312-6.265625-3.101562h-82.941407c-.316406 0-.640624-.796876-.972656-1.238282-11.820312-15.882812-26.296875-28.425781-40.765625-35.390625-16.140625-7.769531-30.699219-7.8125-40.984375-.15625-15.609375 11.613281-16.523437 38.007813-2.710937 66.652344l-26.632813 33.707031c-1.09375 1.425782-1.667968 3.179688-1.632812 4.976563v70.808593l-79.980469 225.300782c-.730469 1.988281-.636719 4.1875.265625 6.105468.898438 1.917969 2.53125 3.398438 4.527344 4.105469l223.117187 79.109375c1.996094.710938 4.191407.59375 6.101563-.316406 1.929687-1 3.398437-2.710938 4.097656-4.769531l28.601562-80.894531h57.808594c4.417969 0 8.460938-3.140626 8.460938-7.558594v-291.890625c-.082032-1.839844-.773438-3.601563-1.960938-5.007813zm-162.382813-27.105469c9.667969-7.195312 32.464844 1.003907 52.675781 24.003907h-37.488281c-2.453125.03125-4.757812 1.171874-6.269531 3.101562l-9.902344 12.480469c-6.867187-17.835938-6.773437-33.8125.984375-39.585938zm105.203125 460.011719-207.953125-73.652344 62.226563-175.117187v173.203125c-.027344 2.054687.792968 4.03125 2.269531 5.460937 1.476563 1.429688 3.476563 2.1875 5.53125 2.097657h161.957031zm91.273438-84.007812h-221v-280.660157l20.890625-26.460937c1.523437 2.324218 3.058593 4.632812 4.742187 6.898437 14.554688 19.558594 33.300782 34.027344 50.363282 39.183594 2.378906 18.042969 18.363281 31.132813 36.519531 29.90625 18.15625-1.222656 32.238281-16.34375 32.171875-34.539063-.070313-18.199218-14.261719-33.214843-32.425782-34.304687h-.03125c-.679687-.035156-1.371093-.058594-2.058593-.058594-14.503907.039063-27.445313 9.113281-32.433594 22.730469-13-4.875-27.730469-16.898438-39.316406-32.460938-2.542969-3.453124-4.910157-7.03125-7.085938-10.722656l12.238281-15.511718h133.203126l44.222656 55.339843zm-102.542969-282.070313c7.433594 3.707031 11.484375 11.917969 9.90625 20.074219-1.582031 8.15625-8.40625 14.261718-16.6875 14.921875-8.285156.664062-15.992187-4.277344-18.847656-12.078125 5.238281-.46875 10.253906-2.359375 14.5-5.460938 5.507812-4.089844 9.273437-10.035156 11.128906-17.457031zm-20.675781 4.617187c-.886719.648438-1.863282 1.175782-2.898438 1.554688 1.667969-2.449219 3.894532-4.46875 6.5-5.886719-.855468 1.699219-2.085937 3.179688-3.601562 4.332031zm0 0"/><path d="m287.753906 357.492188h-161.300781c-4.417969 0-8 3.582031-8 8 0 4.421874 3.582031 8 8 8h161.300781c4.417969 0 8-3.578126 8-8 0-4.417969-3.582031-8-8-8zm0 0"/><path d="m118.453125 327.492188c0 4.421874 3.582031 8 8 8h161.300781c4.417969 0 8-3.578126 8-8 0-4.417969-3.582031-8-8-8h-161.300781c-4.417969 0-8 3.582031-8 8zm0 0"/><path d="m205.933594 276.203125c-6.957032-.007813-12.59375-5.644531-12.601563-12.597656 0-4.417969-3.582031-8-8-8s-8 3.582031-8 8c.019531 12.320312 7.910157 23.25 19.601563 27.140625v5.746094c0 4.421874 3.582031 8 8 8 4.417968 0 8-3.578126 8-8v-5.15625c13.992187-3.535157 23.160156-16.9375 21.382812-31.257813-1.78125-14.320313-13.953125-25.074219-28.382812-25.074219-6.960938 0-12.601563-5.644531-12.601563-12.601562.003907-6.960938 5.648438-12.601563 12.609375-12.597656 6.957032.003906 12.597656 5.648437 12.59375 12.609374 0 4.417969 3.578125 8 8 8 4.417969 0 8-3.582031 8-8-.019531-13.09375-8.910156-24.507812-21.601562-27.730468v-4.191406c0-4.417969-3.582032-8-8-8-4.417969 0-8 3.582031-8 8v4.78125c-13.320313 4.414062-21.46875 17.84375-19.234375 31.699218 2.238281 13.851563 14.199219 24.035156 28.234375 24.03125 6.957031 0 12.601562 5.640625 12.601562 12.601563 0 6.957031-5.644531 12.597656-12.601562 12.597656zm0 0"/></g></svg>