<svg height="439pt" viewBox="0 -11 439.99926 439" width="439pt" xmlns="http://www.w3.org/2000/svg"><path d="m375.460938 137.007812h56.539062l-34.640625 150.351563c-3.136719 13.613281-15.257813 23.257813-29.230469 23.261719h-237.019531l-.320313.046875-27.648437-173.660157zm0 0" fill="#00efd1"/><path d="m389.28125 380.359375c0-16.417969-12.761719-29.730469-28.5-29.730469-15.742188 0-28.5 13.3125-28.5 29.730469s12.757812 29.730469 28.5 29.730469c15.738281 0 28.5-13.3125 28.5-29.730469zm0 0" fill="#00acea"/><path d="m375.460938 8.910156v128.097656h-80.859376v-82.019531h-16.523437v-46.078125zm0 0" fill="#fedb41"/><path d="m278.078125 54.988281h16.523437v82.019531h-89.550781v-82.019531zm0 0" fill="#00acea"/><path d="m231.128906 30.648438v24.339843h-26.078125v82.019531h-56.511719v-106.359374zm0 0" fill="#fedb41"/><path d="m226.878906 380.359375c0-16.417969-12.757812-29.730469-28.5-29.730469-15.738281 0-28.5 13.3125-28.5 29.730469s12.761719 29.730469 28.5 29.730469c15.742188 0 28.5-13.3125 28.5-29.730469zm0 0" fill="#00acea"/><g fill="#083863"><path d="m432 129.5h-49v-120.589844c0-4.417968-3.121094-8.410156-7.539062-8.410156h-97.382813c-4.507813.1875-8.070313 3.894531-8.078125 8.410156v37.589844h-31v-15.851562c.074219-4.421876-3.449219-8.066407-7.871094-8.148438h-82.589844c-4.417968 0-7.539062 3.730469-7.539062 8.148438v98.851562h-31.03125l-6.667969-42.167969c-3.371093-21.191406-20.886719-36.832031-41.640625-36.832031h-53.660156c-4.417969 0-8 3.582031-8 8s3.582031 8 8 8h53.660156c12.84375 0 23.710938 9.722656 25.839844 23.101562l44.960938 282.28125c1.289062 9.519532 9.417968 16.621094 19.023437 16.617188h11.324219c3.710937 17 18.246094 29.308594 35.570312 29.308594 17.328125 0 31.859375-12.308594 35.574219-29.308594h91.253906c3.714844 17 18.246094 29.449219 35.574219 29.449219 20.125 0 36.5-16.855469 36.5-37.660157 0-20.804687-16.375-37.835937-36.5-37.835937-17.617188 0-32.355469 13.046875-35.761719 30.046875h-90.878906c-3.402344-17-18.144531-30.148438-35.761719-30.148438-17.613281 0-32.355468 13.148438-35.757812 30.148438h-10.929688c-1.710937.035156-3.175781-1.21875-3.402344-2.914062-.003906-.046876-.011718-.085938-.019531-.132813l-8.113281-50.953125h227.972656c17.707032.089844 33.101563-12.132812 37.027344-29.398438l34.640625-150.320312c.546875-2.296875-.023437-4.710938-1.535156-6.519531-1.546875-1.839844-3.859375-2.859375-6.261719-2.761719zm-71.21875 229.128906c11.296875 0 20.5 9.75 20.5 21.730469s-9.203125 21.730469-20.5 21.730469c-11.300781 0-20.5-9.75-20.5-21.730469s9.195312-21.730469 20.5-21.730469zm-162.402344 0c11.300782 0 20.5 9.75 20.5 21.730469s-9.199218 21.730469-20.5 21.730469c-11.300781 0-20.5-9.75-20.5-21.730469s9.195313-21.730469 20.5-21.730469zm87.621094-342.128906h81v113h-64v-74.511719c-.148438-4.589843-3.808594-8.292969-8.398438-8.488281h-8.601562zm1 113h-74v-67h74zm-130-91h66v8h-17.949219c-4.417969 0-8.050781 4.070312-8.050781 8.488281v74.511719h-40zm232.566406 247.246094c-2.300781 9.941406-11.234375 16.921875-21.4375 16.753906h-230.519531l-25.09375-157h309.429687zm0 0"/><path d="m246.183594 216.941406 9.816406-9.738281v57.085937c0 4.417969 3.582031 8 8 8s8-3.582031 8-8v-57.089843l9.96875 9.742187c3.160156 3.039063 8.175781 2.976563 11.257812-.140625 3.082032-3.113281 3.09375-8.128906.027344-11.257812l-23.507812-23.144531c-3.113282-3.0625-8.109375-3.0625-11.222656 0l-23.5 23.140624c-2.050782 1.992188-2.882813 4.925782-2.175782 7.695313.707032 2.769531 2.839844 4.949219 5.59375 5.714844s5.707032 0 7.742188-2.007813zm0 0"/><path d="m319.363281 216.941406 9.636719-9.738281v57.085937c0 4.417969 3.582031 8 8 8s8-3.582031 8-8v-57.089843l10.148438 9.742187c1.542968 1.480469 3.597656 2.304688 5.738281 2.300782 2.160156.003906 4.234375-.855469 5.761719-2.386719 3.109374-3.140625 3.082031-8.207031-.058594-11.316407l-23.488282-23.140624c-3.113281-3.0625-8.109374-3.0625-11.21875 0l-23.5 23.140624c-3.183593 3.066407-3.277343 8.132813-.210937 11.316407 1.464844 1.507812 3.472656 2.371093 5.578125 2.386719 2.101562.015624 4.125-.8125 5.613281-2.300782zm0 0"/><path d="m161.578125 216.855469c3.144531 3.144531 8.230469 3.183593 11.421875.085937l10-9.738281v57.085937c0 4.417969 3.582031 8 8 8s8-3.582031 8-8v-57.089843l9.789062 9.742187c1.496094 1.488282 3.523438 2.316406 5.632813 2.296875 2.109375-.015625 4.125-.875 5.597656-2.386719 3.097657-3.152343 3.050781-8.214843-.101562-11.3125l-23.519531-23.140624c-3.113282-3.0625-8.113282-3.0625-11.226563 0l-23.5 23.140624c-3.152344 3.097657-3.191406 8.164063-.09375 11.316407zm0 0"/></g></svg>